<?xml version="1.0" standalone="no"?>
<!DOCTYPE svg PUBLIC "-//W3C//DTD SVG 20010904//EN"
 "http://www.w3.org/TR/2001/REC-SVG-20010904/DTD/svg10.dtd">
<svg version="1.0" xmlns="http://www.w3.org/2000/svg"
 width="24.000000pt" height="24.000000pt" viewBox="0 0 3334.000000 3334.000000"
 preserveAspectRatio="xMidYMid meet">

<g transform="translate(0.000000,3334.000000) scale(0.100000,-0.100000)"
fill="#000000" stroke="none">
<path d="M0 16675 l0 -16665 16665 0 16665 0 0 16665 0 16665 -16665 0 -16665
0 0 -16665z m17170 6393 c0 -633 4 -1097 10 -1131 26 -161 140 -282 298 -316
37 -8 373 -11 1138 -11 l1084 0 -2 -2142 -3 -2143 -34 -63 c-60 -110 -160
-183 -277 -202 -87 -14 -5362 -13 -5440 1 -123 22 -230 105 -282 217 l-27 57
-3 3235 c-2 2365 0 3249 8 3287 23 109 127 222 242 263 51 19 107 19 1671 20
l1617 0 0 -1072z m1429 27 c760 -757 941 -945 941 -976 0 -5 -393 -9 -930 -9
l-930 0 0 936 0 935 33 -18 c17 -10 416 -400 886 -868z m-1529 -9535 c0 -931
4 -1470 10 -1470 5 0 283 340 617 755 l608 755 417 0 c230 0 418 -4 418 -8 0
-4 -250 -304 -555 -667 -305 -363 -555 -662 -555 -665 0 -3 277 -440 615 -970
l614 -965 -417 -3 c-343 -2 -419 0 -427 11 -5 8 -194 325 -420 706 -225 380
-413 690 -417 689 -3 -2 -119 -133 -257 -292 l-251 -289 0 -414 0 -413 -375 0
-375 0 0 2355 0 2355 375 0 375 0 0 -1470z m-10850 245 l0 -875 880 0 880 0 0
875 0 875 390 0 390 0 0 -2180 0 -2180 -390 0 -390 0 0 965 0 965 -880 0 -880
0 0 -965 0 -965 -390 0 -390 0 0 2180 0 2180 390 0 390 0 0 -875z m14892 -145
c402 -1111 442 -1224 583 -1662 58 -180 101 -298 108 -298 13 0 31 51 172 500
48 151 253 745 457 1320 204 575 379 1071 390 1103 l20 57 439 0 439 0 0
-2180 0 -2180 -356 0 -355 0 4 1193 c3 1125 5 1206 25 1442 30 343 61 673 66
713 3 20 1 32 -7 32 -7 0 -86 -215 -181 -488 -92 -268 -328 -923 -523 -1457
-196 -533 -360 -982 -365 -997 l-10 -28 -233 0 -233 0 -10 28 c-5 15 -170 461
-365 992 -195 531 -430 1186 -522 1455 -92 270 -169 492 -171 494 -2 2 -7 1
-11 -2 -6 -6 7 -159 64 -777 14 -147 17 -371 20 -1387 l4 -1213 -350 0 -351 0
0 2180 0 2180 442 -2 442 -3 368 -1015z m5341 991 c705 -112 1169 -433 1437
-993 169 -356 243 -796 219 -1317 -27 -589 -189 -1049 -494 -1404 -228 -265
-596 -473 -982 -557 -245 -53 -248 -53 -1055 -57 l-758 -4 0 2181 0 2181 748
-4 c712 -3 753 -4 885 -26z m-15198 -981 c142 -14 290 -49 401 -97 305 -132
515 -403 605 -779 53 -223 52 -210 56 -1381 l4 -1093 -319 0 -320 0 -28 180
c-15 99 -32 180 -36 180 -5 0 -43 -28 -86 -62 -320 -256 -627 -378 -948 -378
-288 0 -510 86 -694 270 -181 181 -270 409 -270 690 0 653 511 1017 1655 1179
77 11 169 23 204 27 l64 7 -6 81 c-17 229 -117 406 -277 491 -89 46 -177 65
-311 65 -262 0 -548 -97 -886 -301 l-31 -20 -141 255 c-78 140 -141 257 -141
259 0 10 163 104 288 166 414 207 833 297 1217 261z m3670 -15 c123 -22 280
-76 396 -137 91 -47 290 -186 297 -207 3 -9 -353 -494 -367 -499 -4 -1 -38 23
-77 53 -79 64 -221 137 -309 161 -77 20 -248 20 -342 0 -202 -44 -392 -173
-512 -349 -199 -292 -254 -793 -129 -1177 56 -175 167 -348 287 -447 76 -62
216 -135 311 -160 100 -27 310 -24 415 5 113 33 265 108 370 185 67 49 93 62
101 54 16 -17 304 -486 304 -495 -2 -26 -233 -180 -363 -242 -218 -104 -401
-149 -649 -157 -474 -16 -860 126 -1163 431 -124 124 -208 241 -285 396 -213
425 -251 1035 -94 1510 199 606 723 1022 1371 1090 115 12 325 4 438 -15z"/>
<path d="M15192 21066 l-37 -34 -3 -169 c-2 -155 -1 -171 18 -201 41 -66 -52
-62 1495 -62 1547 0 1455 -4 1495 62 18 29 20 50 20 191 0 122 -3 165 -15 187
-33 64 67 60 -1505 60 l-1430 0 -38 -34z"/>
<path d="M15192 20056 l-37 -34 0 -182 0 -182 37 -34 38 -34 1431 0 c1577 0
1464 -5 1503 60 24 41 24 339 0 380 -39 65 74 60 -1503 60 l-1431 0 -38 -34z"/>
<path d="M15223 19065 c-18 -8 -42 -29 -53 -47 -19 -30 -20 -46 -18 -201 l3
-169 37 -34 38 -34 1430 0 c1572 0 1472 -4 1505 60 12 22 15 65 15 187 0 179
-10 212 -75 239 -51 21 -2833 21 -2882 -1z"/>
<path d="M25600 12500 l0 -1552 283 5 c292 5 375 14 537 59 436 121 732 455
839 949 52 240 69 608 42 859 -33 290 -115 540 -240 730 -49 75 -182 213 -257
266 -81 58 -248 137 -354 167 -171 49 -257 59 -562 64 l-288 5 0 -1552z"/>
<path d="M11337 11900 c-407 -70 -673 -170 -818 -308 -110 -104 -149 -191
-149 -339 0 -117 28 -199 93 -270 88 -95 193 -133 371 -133 220 0 383 70 617
267 l89 75 0 369 c0 345 -1 369 -17 368 -10 0 -94 -14 -186 -29z"/>
</g>
</svg>
