<?xml version="1.0" standalone="no"?>
<!DOCTYPE svg PUBLIC "-//W3C//DTD SVG 20010904//EN"
 "http://www.w3.org/TR/2001/REC-SVG-20010904/DTD/svg10.dtd">
<svg version="1.0" xmlns="http://www.w3.org/2000/svg"
 width="70.000000pt" height="70.000000pt" viewBox="0 0 500.000000 300.000000"
 preserveAspectRatio="xMidYMid meet">

<g transform="translate(0.000000,300.000000) scale(0.100000,-0.100000)"
fill="#000000" stroke="none">
<path d="M1098 1775 c11 -14 18 -33 15 -43 -2 -9 -39 -35 -81 -56 -103 -53
-106 -55 -85 -73 16 -13 16 -13 -5 -3 -28 14 -72 3 -51 -12 11 -8 11 -9 -3 -5
-9 3 -29 2 -45 -3 -15 -4 -22 -9 -15 -9 6 -1 12 -6 12 -12 0 -6 -7 -9 -15 -5
-8 3 -15 0 -15 -7 0 -7 -20 -20 -45 -30 -25 -11 -45 -23 -45 -28 0 -5 -9 -9
-19 -9 -11 0 -23 -4 -26 -10 -3 -5 -1 -10 6 -10 7 0 10 -2 7 -5 -3 -3 -17 -1
-31 4 -21 8 -25 7 -23 -7 3 -18 72 -71 93 -72 8 0 13 -25 15 -77 l3 -78 115
-69 c102 -62 122 -70 176 -74 51 -3 69 0 115 23 82 42 243 137 251 149 4 6 8
58 8 116 0 82 -4 111 -16 129 -9 13 -63 45 -120 72 l-104 49 0 71 c0 44 -4 68
-10 64 -5 -3 -7 0 -4 8 3 8 0 18 -7 23 -9 5 -11 -4 -6 -37 l5 -44 -20 42 c-11
23 -26 44 -34 47 -11 4 -10 -1 4 -19z m9 -101 c-3 -3 -12 -4 -19 -1 -8 3 -5 6
6 6 11 1 17 -2 13 -5z m135 -138 c92 -44 113 -62 103 -88 -7 -18 -222 -144
-266 -156 -53 -14 -88 -5 -190 52 -127 69 -129 88 -14 151 119 66 153 83 171
88 40 12 103 -4 196 -47z"/>
<path d="M2959 1778 c-4 -14 -2 -512 2 -520 4 -5 28 -8 55 -6 l49 3 3 57 c3
55 25 94 40 72 26 -37 96 -124 101 -125 21 -5 131 -4 131 1 0 3 -36 50 -80
104 -44 55 -80 101 -80 102 0 2 37 39 83 83 l82 80 -75 1 -74 0 -63 -62 -63
-62 0 137 0 137 -55 0 c-30 0 -55 -1 -56 -2z"/>
<path d="M1601 1506 c0 -274 -7 -253 79 -251 l45 0 3 98 3 97 89 0 89 0 3 -97
3 -98 45 -3 c25 -1 51 2 58 6 10 7 13 60 13 243 0 129 -1 237 -1 242 0 4 -27
7 -60 7 l-60 0 0 -95 0 -95 -90 0 -90 0 0 95 0 95 -65 0 -64 0 0 -244z"/>
<path d="M3411 1505 c2 -244 2 -245 24 -251 12 -3 39 -4 61 -2 l39 3 0 137 c0
75 3 134 6 132 4 -2 27 -37 53 -77 45 -73 49 -76 96 -68 3 1 28 37 55 81 l50
80 5 -141 5 -142 40 -3 c80 -6 75 -22 75 252 l0 244 -57 0 -58 -1 -60 -100
c-33 -55 -65 -104 -71 -110 -7 -6 -32 26 -78 101 l-67 110 -60 0 -60 0 2 -245z"/>
<path d="M4050 1743 c0 -5 -1 -113 -1 -242 0 -182 3 -236 13 -243 7 -5 70 -7
139 -5 119 3 130 5 180 34 73 41 109 99 116 187 8 94 -11 151 -66 206 -28 27
-63 50 -87 58 -45 13 -294 17 -294 5z m284 -135 c39 -39 51 -91 36 -149 -19
-70 -66 -99 -161 -99 l-39 0 0 140 0 140 66 0 c61 0 68 -2 98 -32z"/>
<path d="M2236 1630 c-37 -12 -96 -52 -96 -66 0 -5 13 -23 30 -39 28 -27 31
-28 49 -11 41 37 131 28 131 -13 0 -15 -11 -19 -69 -23 -106 -8 -151 -44 -151
-123 0 -55 44 -96 106 -102 34 -4 60 0 80 10 22 11 32 12 40 3 5 -6 32 -11 60
-11 l49 0 0 140 c-1 165 -5 187 -46 216 -34 24 -134 35 -183 19z m112 -252 c3
-22 -2 -28 -32 -38 -26 -8 -41 -8 -56 0 -36 20 -20 54 30 62 43 7 55 2 58 -24z"/>
<path d="M2644 1621 c-95 -43 -138 -181 -87 -276 17 -30 65 -72 96 -84 64 -24
172 -7 219 36 16 14 15 17 -13 53 l-31 38 -32 -19 c-45 -27 -82 -24 -117 10
-41 41 -40 91 1 133 27 26 36 30 67 25 19 -4 44 -14 55 -24 20 -18 21 -17 54
21 18 21 31 43 28 48 -4 6 -30 21 -58 34 -62 29 -126 31 -182 5z"/>
<path d="M580 1466 c0 -2 7 -7 16 -10 8 -3 12 -2 9 4 -6 10 -25 14 -25 6z"/>
</g>
</svg>
