<?xml version="1.0" standalone="no"?>
<!DOCTYPE svg PUBLIC "-//W3C//DTD SVG 20010904//EN"
 "http://www.w3.org/TR/2001/REC-SVG-20010904/DTD/svg10.dtd">
<svg version="1.0" xmlns="http://www.w3.org/2000/svg"
 width="24.000000pt" height="24.000000pt" viewBox="0 0 512.000000 512.000000"
 preserveAspectRatio="xMidYMid meet">

<g transform="translate(0.000000,512.000000) scale(0.100000,-0.100000)"
fill="#FFFFFF" stroke="none">
<path d="M273 4900 c-97 -20 -191 -93 -239 -187 l-29 -58 0 -1835 0 -1835 28
-60 c36 -76 110 -147 183 -175 52 -19 75 -20 543 -20 l488 0 21 23 c31 33 29
87 -4 118 l-26 24 -481 5 -482 5 -34 24 c-18 13 -42 42 -52 65 -18 39 -19 96
-19 1379 l0 1337 2390 0 2390 0 0 -280 c0 -296 3 -319 47 -339 39 -18 63 -13
94 19 l30 29 -3 758 -3 758 -29 58 c-36 70 -99 130 -174 165 l-57 27 -2270 1
c-1249 1 -2289 -2 -2312 -6z m4560 -174 c50 -18 76 -42 98 -91 17 -36 19 -72
19 -397 l0 -358 -2390 0 -2390 0 0 358 c0 325 2 361 19 397 22 49 48 73 98 91
57 20 4489 20 4546 0z"/>
<path d="M551 4558 c-141 -24 -233 -163 -202 -302 33 -146 176 -232 317 -191
47 13 69 27 111 70 55 57 73 99 73 174 0 63 -18 116 -57 160 -64 75 -147 106
-242 89z m108 -194 c56 -72 -12 -164 -95 -129 -85 35 -59 155 35 155 31 0 44
-6 60 -26z"/>
<path d="M1265 4564 c-5 -1 -26 -5 -46 -8 -52 -9 -125 -61 -154 -110 -55 -94
-52 -195 8 -283 98 -144 316 -144 414 0 91 135 42 316 -102 377 -40 18 -101
30 -120 24z m72 -196 c25 -23 31 -74 13 -108 -14 -27 -64 -41 -100 -28 -36 12
-50 35 -50 79 0 70 85 106 137 57z"/>
<path d="M1919 4559 c-63 -9 -100 -30 -146 -83 -60 -68 -78 -156 -52 -251 17
-63 100 -139 173 -160 185 -54 359 112 317 300 -30 131 -155 215 -292 194z
m101 -189 c45 -45 33 -112 -24 -135 -83 -35 -151 57 -95 129 26 33 88 37 119
6z"/>
</g>
</svg>
